# xmcd CD database file
#
# Track frame offsets:
#       150
#       13644
#       29273
#       44222
#       54085
#       67237
#       79977
#       94245
#       114398
#       124126
#       141524
#       152322
#       169640
#       186082
#       207128
#       230678
#
# Disc length: 3196 seconds
#
# Revision: 0
# Processed by: cddbd v1.4PL0 Copyright (c) Steve Scherf et al.
# Submitted via: jack 2.99.6
#
DISCID=dd0c7a10
DTITLE=The Whiteley Brothers - Sixteen Shades of Blue
DYEAR=1900
DGENRE=
TTITLE0=Stop Running
TTITLE1=Tell Me That You've Got the Blues
TTITLE2=Friday Night Blues
TTITLE3=Mr. Weatherman
TTITLE4=Reap What You Sow
TTITLE5=Swinging the Blues
TTITLE6=We Just Smile
TTITLE7=Forgetful Baby
TTITLE8=Gulf of Tears
TTITLE9=I Depend On You Too Much
TTITLE10=Time for Moving On
TTITLE11=Long Road Up
TTITLE12=It's Ecstasy
TTITLE13=Come a Little Closer
TTITLE14=She Makes Her Own Way
TTITLE15=Doing Something Right
EXTD=
EXTT0=
EXTT1=
EXTT2=
EXTT3=
EXTT4=
EXTT5=
EXTT6=
EXTT7=
EXTT8=
EXTT9=
EXTT10=
EXTT11=
EXTT12=
EXTT13=
EXTT14=
EXTT15=
PLAYORDER=
